<svg xmlns="http://www.w3.org/2000/svg" xmlns:xlink="http://www.w3.org/1999/xlink" width="500" zoomAndPan="magnify" viewBox="0 0 375 374.999991" height="500" preserveAspectRatio="xMidYMid meet" version="1.0"><defs><g/><clipPath id="c19a620640"><path d="M 214 120 L 301 120 L 301 269 L 214 269 Z M 214 120 " clip-rule="nonzero"/></clipPath><clipPath id="0c43abcadd"><path d="M 278.566406 300.378906 L 156.082031 215.59375 L 242.753906 90.386719 L 365.238281 175.171875 Z M 278.566406 300.378906 " clip-rule="nonzero"/></clipPath><clipPath id="0623885003"><path d="M 155.996094 215.535156 L 278.484375 300.320312 L 365.152344 175.113281 L 242.667969 90.328125 Z M 155.996094 215.535156 " clip-rule="nonzero"/></clipPath><clipPath id="39a0867c48"><path d="M 186 166 L 249 166 L 249 229 L 186 229 Z M 186 166 " clip-rule="nonzero"/></clipPath><clipPath id="a74600b166"><path d="M 278.566406 300.378906 L 156.082031 215.59375 L 242.753906 90.386719 L 365.238281 175.171875 Z M 278.566406 300.378906 " clip-rule="nonzero"/></clipPath><clipPath id="7c48e5a12a"><path d="M 155.996094 215.535156 L 278.484375 300.320312 L 365.152344 175.113281 L 242.667969 90.328125 Z M 155.996094 215.535156 " clip-rule="nonzero"/></clipPath><clipPath id="81866f9030"><path d="M 198 232 L 211 232 L 211 246 L 198 246 Z M 198 232 " clip-rule="nonzero"/></clipPath><clipPath id="54c6533723"><path d="M 278.566406 300.378906 L 156.082031 215.59375 L 242.753906 90.386719 L 365.238281 175.171875 Z M 278.566406 300.378906 " clip-rule="nonzero"/></clipPath><clipPath id="cbb8775bf6"><path d="M 155.996094 215.535156 L 278.484375 300.320312 L 365.152344 175.113281 L 242.667969 90.328125 Z M 155.996094 215.535156 " clip-rule="nonzero"/></clipPath><clipPath id="43cbac7468"><path d="M 216 230 L 223 230 L 223 237 L 216 237 Z M 216 230 " clip-rule="nonzero"/></clipPath><clipPath id="0b6803e7a4"><path d="M 278.566406 300.378906 L 156.082031 215.59375 L 242.753906 90.386719 L 365.238281 175.171875 Z M 278.566406 300.378906 " clip-rule="nonzero"/></clipPath><clipPath id="2be7f3c186"><path d="M 155.996094 215.535156 L 278.484375 300.320312 L 365.152344 175.113281 L 242.667969 90.328125 Z M 155.996094 215.535156 " clip-rule="nonzero"/></clipPath></defs><rect x="-37.5" width="450" fill="#ffffff" y="-37.499999" height="449.999989" fill-opacity="1"/>
  <rect width="100%" height="100%" rx="30" ry="30" fill="none"/>
<rect x="-37.5" width="450" fill="#0f3582" y="-37.499999" height="449.999989" fill-opacity="1"/><g fill="#ffffff" fill-opacity="1"><g transform="translate(43.302201, 264.102862)"><g><path d="M 125.234375 -145.0625 L 129.09375 -145.0625 L 129.09375 0 L 127.640625 0 L 25.140625 -135.140625 L 25.140625 0 L 21.28125 0 L 21.28125 -145.0625 L 22.71875 -145.0625 L 125.234375 -9.671875 Z M 125.234375 -145.0625 "/></g></g></g><g clip-path="url(#c19a620640)"><g clip-path="url(#0c43abcadd)"><g clip-path="url(#0623885003)"><path fill="#ffffff" d="M 245.019531 251.539062 C 230.023438 239.007812 221.242188 221.847656 218.96875 203.917969 C 218.285156 203.660156 217.640625 203.269531 217.035156 202.742188 C 214 200.210938 213.589844 195.675781 216.121094 192.640625 C 216.796875 191.816406 217.582031 191.230469 218.484375 190.78125 C 219.28125 175.40625 224.921875 160.105469 235.566406 147.296875 C 249.0625 131.140625 267.96875 122.171875 287.441406 120.855469 C 269.21875 122.929688 251.75 131.765625 239.007812 146.988281 C 228.441406 159.6875 222.800781 174.832031 221.957031 190.117188 C 221.675781 194.871094 221.875 199.636719 222.515625 204.386719 C 224.90625 222.070312 233.667969 238.949219 248.433594 251.269531 C 263.648438 263.953125 282.460938 269.496094 300.777344 268.296875 C 281.425781 270.449219 261.175781 265.039062 245.019531 251.539062 Z M 245.019531 251.539062 " fill-opacity="1" fill-rule="nonzero"/></g></g></g><g clip-path="url(#39a0867c48)"><g clip-path="url(#a74600b166)"><g clip-path="url(#7c48e5a12a)"><path fill="#ffffff" d="M 248.824219 223.347656 C 243.285156 219.460938 237.871094 215.390625 232.570312 211.234375 C 227.933594 207.597656 223.382812 203.910156 218.859375 200.1875 C 219.144531 203.503906 219.40625 206.859375 219.570312 210.199219 C 219.835938 214.472656 220.019531 218.796875 220.007812 223.089844 C 219.234375 218.84375 218.683594 214.589844 218.128906 210.332031 C 217.746094 207 217.363281 203.667969 217.054688 200.386719 C 213.292969 204.886719 209.460938 209.335938 205.554688 213.734375 C 201.089844 218.710938 196.558594 223.699219 191.773438 228.511719 C 195.664062 222.972656 199.734375 217.558594 203.886719 212.253906 C 207.527344 207.621094 211.214844 203.070312 214.9375 198.546875 C 211.621094 198.832031 208.265625 199.09375 204.925781 199.253906 C 200.652344 199.523438 196.328125 199.707031 192.035156 199.691406 C 196.28125 198.917969 200.535156 198.367188 204.789062 197.816406 C 208.121094 197.433594 211.453125 197.050781 214.738281 196.738281 C 210.238281 192.980469 205.789062 189.148438 201.390625 185.242188 C 196.339844 180.722656 191.351562 176.195312 186.539062 171.410156 C 192.078125 175.300781 197.46875 179.40625 202.796875 183.523438 C 207.429688 187.164062 211.980469 190.851562 216.503906 194.574219 C 216.21875 191.257812 215.957031 187.902344 215.796875 184.5625 C 215.527344 180.285156 215.34375 175.964844 215.324219 171.644531 C 216.09375 175.890625 216.644531 180.144531 217.199219 184.402344 C 217.582031 187.734375 217.964844 191.066406 218.3125 194.371094 C 222.070312 189.875 225.902344 185.425781 229.808594 181.027344 C 234.328125 175.976562 238.855469 170.988281 243.640625 166.175781 C 239.75 171.714844 235.644531 177.105469 231.527344 182.429688 C 227.910156 187.191406 224.222656 191.738281 220.472656 196.300781 C 223.792969 196.015625 227.148438 195.753906 230.488281 195.589844 C 234.761719 195.324219 239.085938 195.140625 243.402344 195.117188 C 239.15625 195.890625 234.902344 196.441406 230.648438 196.992188 C 227.316406 197.375 223.984375 197.761719 220.703125 198.070312 C 225.199219 201.832031 229.648438 205.664062 234.046875 209.566406 C 239.023438 214.035156 244.011719 218.566406 248.824219 223.347656 Z M 248.824219 223.347656 " fill-opacity="1" fill-rule="nonzero"/></g></g></g><g clip-path="url(#81866f9030)"><g clip-path="url(#54c6533723)"><g clip-path="url(#cbb8775bf6)"><path fill="#ffffff" d="M 210.972656 244.378906 C 209.808594 243.574219 208.730469 242.722656 207.628906 241.90625 C 206.695312 241.152344 205.726562 240.375 204.796875 239.621094 C 204.859375 240.3125 204.917969 241 204.945312 241.660156 C 204.976562 242.546875 205.011719 243.429688 205.046875 244.3125 C 204.886719 243.453125 204.757812 242.554688 204.660156 241.679688 C 204.601562 240.992188 204.476562 240.316406 204.414062 239.628906 C 203.625 240.535156 202.875 241.464844 202.050781 242.347656 C 201.121094 243.375 200.195312 244.402344 199.199219 245.378906 C 200.003906 244.214844 200.855469 243.136719 201.675781 242.035156 C 202.425781 241.101562 203.203125 240.132812 203.957031 239.203125 C 203.269531 239.265625 202.582031 239.324219 201.917969 239.351562 C 201.035156 239.382812 200.148438 239.417969 199.265625 239.453125 C 200.125 239.296875 201.023438 239.164062 201.898438 239.070312 C 202.585938 239.007812 203.261719 238.882812 203.949219 238.820312 C 203.042969 238.035156 202.113281 237.28125 201.230469 236.457031 C 200.203125 235.53125 199.179688 234.605469 198.203125 233.605469 C 199.367188 234.410156 200.441406 235.265625 201.546875 236.082031 C 202.476562 236.832031 203.445312 237.609375 204.375 238.363281 C 204.316406 237.675781 204.253906 236.988281 204.226562 236.324219 C 204.195312 235.441406 204.160156 234.554688 204.128906 233.671875 C 204.285156 234.535156 204.414062 235.429688 204.511719 236.304688 C 204.570312 236.992188 204.695312 237.667969 204.757812 238.359375 C 205.546875 237.453125 206.296875 236.519531 207.125 235.636719 C 208.050781 234.613281 208.976562 233.585938 209.972656 232.609375 C 209.167969 233.773438 208.316406 234.847656 207.5 235.953125 C 206.746094 236.882812 205.96875 237.851562 205.214844 238.78125 C 205.902344 238.722656 206.59375 238.660156 207.253906 238.632812 C 208.140625 238.601562 209.023438 238.566406 209.90625 238.535156 C 209.046875 238.691406 208.148438 238.820312 207.273438 238.917969 C 206.585938 238.980469 205.910156 239.101562 205.222656 239.164062 C 206.128906 239.953125 207.058594 240.703125 207.941406 241.53125 C 208.941406 242.492188 209.96875 243.417969 210.972656 244.378906 Z M 210.972656 244.378906 " fill-opacity="1" fill-rule="nonzero"/></g></g></g><g clip-path="url(#43cbac7468)"><g clip-path="url(#0b6803e7a4)"><g clip-path="url(#2be7f3c186)"><path fill="#ffffff" d="M 222.300781 235.707031 C 221.753906 235.328125 221.269531 234.941406 220.75 234.527344 C 220.304688 234.164062 219.890625 233.824219 219.445312 233.460938 C 219.476562 233.804688 219.496094 234.085938 219.527344 234.433594 C 219.566406 234.835938 219.546875 235.253906 219.589844 235.660156 C 219.511719 235.230469 219.46875 234.824219 219.425781 234.417969 C 219.371094 234.109375 219.339844 233.765625 219.320312 233.484375 C 218.957031 233.929688 218.582031 234.316406 218.21875 234.765625 C 217.769531 235.261719 217.34375 235.71875 216.894531 236.214844 C 217.269531 235.667969 217.660156 235.183594 218.074219 234.664062 C 218.4375 234.214844 218.777344 233.804688 219.140625 233.359375 C 218.796875 233.386719 218.511719 233.40625 218.167969 233.4375 C 217.761719 233.480469 217.347656 233.460938 216.941406 233.503906 C 217.371094 233.425781 217.777344 233.382812 218.183594 233.339844 C 218.492188 233.285156 218.835938 233.253906 219.117188 233.234375 C 218.667969 232.871094 218.28125 232.496094 217.835938 232.132812 C 217.339844 231.683594 216.882812 231.257812 216.386719 230.804688 C 216.933594 231.183594 217.414062 231.574219 217.9375 231.988281 C 218.382812 232.351562 218.796875 232.6875 219.242188 233.050781 C 219.210938 232.707031 219.191406 232.425781 219.160156 232.082031 C 219.121094 231.675781 219.140625 231.257812 219.097656 230.855469 C 219.175781 231.285156 219.21875 231.691406 219.257812 232.097656 C 219.316406 232.402344 219.347656 232.746094 219.367188 233.03125 C 219.730469 232.582031 220.105469 232.195312 220.46875 231.75 C 220.917969 231.253906 221.34375 230.792969 221.792969 230.300781 C 221.417969 230.84375 221.027344 231.328125 220.613281 231.847656 C 220.25 232.296875 219.910156 232.707031 219.546875 233.15625 C 219.890625 233.125 220.175781 233.105469 220.519531 233.074219 C 220.925781 233.03125 221.339844 233.050781 221.746094 233.011719 C 221.316406 233.089844 220.910156 233.132812 220.503906 233.171875 C 220.195312 233.230469 219.851562 233.257812 219.570312 233.277344 C 220.019531 233.644531 220.402344 234.019531 220.851562 234.382812 C 221.371094 234.796875 221.867188 235.246094 222.300781 235.707031 Z M 222.300781 235.707031 " fill-opacity="1" fill-rule="nonzero"/></g></g></g></svg>