<svg xmlns="http://www.w3.org/2000/svg" xmlns:xlink="http://www.w3.org/1999/xlink" width="500" zoomAndPan="magnify" viewBox="0 0 375 374.999991" height="500" preserveAspectRatio="xMidYMid meet" version="1.0"><defs><g/><clipPath id="1e6d0be821"><path d="M 115 158 L 148 158 L 148 213 L 115 213 Z M 115 158 " clip-rule="nonzero"/></clipPath><clipPath id="bcc374d25f"><path d="M 139.289062 223.625 L 94.886719 192.886719 L 126.476562 147.253906 L 170.875 177.988281 Z M 139.289062 223.625 " clip-rule="nonzero"/></clipPath><clipPath id="ba379defd6"><path d="M 94.589844 192.679688 L 138.988281 223.417969 L 170.578125 177.78125 L 126.175781 147.046875 Z M 94.589844 192.679688 " clip-rule="nonzero"/></clipPath><clipPath id="6a16fdbde1"><path d="M 105 174 L 129 174 L 129 198 L 105 198 Z M 105 174 " clip-rule="nonzero"/></clipPath><clipPath id="88dac83215"><path d="M 139.289062 223.625 L 94.886719 192.886719 L 126.476562 147.253906 L 170.875 177.988281 Z M 139.289062 223.625 " clip-rule="nonzero"/></clipPath><clipPath id="f8ffac2ea6"><path d="M 94.589844 192.679688 L 138.988281 223.417969 L 170.578125 177.78125 L 126.175781 147.046875 Z M 94.589844 192.679688 " clip-rule="nonzero"/></clipPath><clipPath id="2dae91d1c1"><path d="M 109 198 L 115 198 L 115 204 L 109 204 Z M 109 198 " clip-rule="nonzero"/></clipPath><clipPath id="fee66bf957"><path d="M 139.289062 223.625 L 94.886719 192.886719 L 126.476562 147.253906 L 170.875 177.988281 Z M 139.289062 223.625 " clip-rule="nonzero"/></clipPath><clipPath id="a9834e8354"><path d="M 94.589844 192.679688 L 138.988281 223.417969 L 170.578125 177.78125 L 126.175781 147.046875 Z M 94.589844 192.679688 " clip-rule="nonzero"/></clipPath><clipPath id="c61e207bdb"><path d="M 116 198 L 119 198 L 119 201 L 116 201 Z M 116 198 " clip-rule="nonzero"/></clipPath><clipPath id="2b86e1bd64"><path d="M 139.289062 223.625 L 94.886719 192.886719 L 126.476562 147.253906 L 170.875 177.988281 Z M 139.289062 223.625 " clip-rule="nonzero"/></clipPath><clipPath id="adcfc18e2c"><path d="M 94.589844 192.679688 L 138.988281 223.417969 L 170.578125 177.78125 L 126.175781 147.046875 Z M 94.589844 192.679688 " clip-rule="nonzero"/></clipPath></defs><g fill="#000000" fill-opacity="1"><g transform="translate(152.493042, 208.194326)"><g><path d="M 31.234375 0.671875 C 27.671875 0.671875 24.34375 0.00390625 21.25 -1.328125 C 18.164062 -2.671875 15.4375 -4.523438 13.0625 -6.890625 C 10.695312 -9.253906 8.847656 -11.976562 7.515625 -15.0625 C 6.179688 -18.15625 5.515625 -21.488281 5.515625 -25.0625 C 5.515625 -28.625 6.179688 -31.945312 7.515625 -35.03125 C 8.847656 -38.125 10.695312 -40.851562 13.0625 -43.21875 C 15.4375 -45.582031 18.164062 -47.429688 21.25 -48.765625 C 24.34375 -50.109375 27.671875 -50.78125 31.234375 -50.78125 C 34.796875 -50.78125 38.132812 -50.109375 41.25 -48.765625 C 44.375 -47.429688 47.101562 -45.582031 49.4375 -43.21875 C 51.78125 -40.851562 53.617188 -38.125 54.953125 -35.03125 C 56.285156 -31.945312 56.953125 -28.625 56.953125 -25.0625 C 56.953125 -21.488281 56.285156 -18.15625 54.953125 -15.0625 C 53.617188 -11.976562 51.78125 -9.253906 49.4375 -6.890625 C 47.101562 -4.523438 44.375 -2.671875 41.25 -1.328125 C 38.132812 0.00390625 34.796875 0.671875 31.234375 0.671875 Z M 31.234375 -0.671875 C 34.628906 -0.671875 37.800781 -1.296875 40.75 -2.546875 C 43.707031 -3.796875 46.296875 -5.535156 48.515625 -7.765625 C 50.742188 -9.992188 52.484375 -12.582031 53.734375 -15.53125 C 54.992188 -18.476562 55.625 -21.65625 55.625 -25.0625 C 55.625 -28.457031 54.992188 -31.628906 53.734375 -34.578125 C 52.484375 -37.523438 50.742188 -40.113281 48.515625 -42.34375 C 46.296875 -44.570312 43.707031 -46.3125 40.75 -47.5625 C 37.800781 -48.8125 34.628906 -49.4375 31.234375 -49.4375 C 27.890625 -49.4375 24.742188 -48.8125 21.796875 -47.5625 C 18.847656 -46.3125 16.242188 -44.570312 13.984375 -42.34375 C 11.734375 -40.113281 9.976562 -37.523438 8.71875 -34.578125 C 7.46875 -31.628906 6.84375 -28.457031 6.84375 -25.0625 C 6.84375 -21.65625 7.46875 -18.476562 8.71875 -15.53125 C 9.976562 -12.582031 11.734375 -9.992188 13.984375 -7.765625 C 16.242188 -5.535156 18.847656 -3.796875 21.796875 -2.546875 C 24.742188 -1.296875 27.890625 -0.671875 31.234375 -0.671875 Z M 31.234375 -0.671875 "/></g></g></g><g fill="#000000" fill-opacity="1"><g transform="translate(219.038459, 208.194326)"><g><path d="M 51.953125 -50.109375 L 53.109375 -50.109375 L 53.109375 0 L 51.78125 0 L 51.78125 -47.015625 L 30.734375 0 L 29.640625 0 L 8.6875 -47.015625 L 8.6875 0 L 7.34375 0 L 7.34375 -50.109375 L 8.515625 -50.109375 L 30.234375 -1.671875 Z M 51.953125 -50.109375 "/></g></g></g><g fill="#000000" fill-opacity="1"><g transform="translate(283.496542, 208.194326)"><g><path d="M 37.421875 0 L 32.734375 -12.9375 L 7.515625 -12.9375 L 2.84375 0 L 1.25 0 L 19.375 -50.109375 L 20.875 -50.109375 L 38.921875 0 Z M 7.9375 -14.28125 L 32.328125 -14.28125 L 20.125 -48.265625 Z M 7.9375 -14.28125 "/></g></g></g><g clip-path="url(#1e6d0be821)"><g clip-path="url(#bcc374d25f)"><g clip-path="url(#ba379defd6)"><path fill="#000000" d="M 127.050781 205.8125 C 121.582031 201.242188 118.382812 194.984375 117.550781 188.445312 C 117.304688 188.351562 117.066406 188.210938 116.847656 188.019531 C 115.742188 187.09375 115.589844 185.441406 116.515625 184.335938 C 116.761719 184.035156 117.046875 183.820312 117.375 183.65625 C 117.667969 178.050781 119.722656 172.46875 123.605469 167.796875 C 128.527344 161.90625 135.421875 158.636719 142.523438 158.15625 C 135.878906 158.910156 129.507812 162.132812 124.859375 167.6875 C 121.007812 172.316406 118.949219 177.839844 118.640625 183.414062 C 118.539062 185.148438 118.613281 186.886719 118.847656 188.617188 C 119.71875 195.066406 122.914062 201.222656 128.296875 205.714844 C 133.847656 210.339844 140.707031 212.363281 147.386719 211.925781 C 140.328125 212.710938 132.945312 210.734375 127.050781 205.8125 Z M 127.050781 205.8125 " fill-opacity="1" fill-rule="nonzero"/></g></g></g><g clip-path="url(#6a16fdbde1)"><g clip-path="url(#88dac83215)"><g clip-path="url(#f8ffac2ea6)"><path fill="#000000" d="M 128.441406 195.53125 C 126.421875 194.113281 124.445312 192.628906 122.511719 191.117188 C 120.820312 189.789062 119.164062 188.445312 117.511719 187.085938 C 117.617188 188.296875 117.710938 189.519531 117.769531 190.738281 C 117.871094 192.296875 117.9375 193.871094 117.929688 195.4375 C 117.648438 193.890625 117.449219 192.339844 117.246094 190.785156 C 117.105469 189.570312 116.96875 188.355469 116.855469 187.160156 C 115.484375 188.800781 114.085938 190.421875 112.660156 192.027344 C 111.03125 193.839844 109.378906 195.660156 107.636719 197.414062 C 109.054688 195.394531 110.539062 193.421875 112.054688 191.488281 C 113.378906 189.796875 114.726562 188.136719 116.082031 186.488281 C 114.871094 186.59375 113.648438 186.6875 112.429688 186.746094 C 110.871094 186.84375 109.296875 186.910156 107.730469 186.90625 C 109.277344 186.625 110.832031 186.421875 112.382812 186.222656 C 113.597656 186.082031 114.8125 185.941406 116.007812 185.828125 C 114.367188 184.457031 112.746094 183.058594 111.140625 181.636719 C 109.300781 179.988281 107.480469 178.335938 105.726562 176.59375 C 107.746094 178.011719 109.710938 179.507812 111.65625 181.007812 C 113.34375 182.335938 115.003906 183.679688 116.652344 185.039062 C 116.550781 183.828125 116.453125 182.605469 116.394531 181.386719 C 116.296875 179.828125 116.230469 178.253906 116.222656 176.675781 C 116.503906 178.226562 116.707031 179.777344 116.90625 181.328125 C 117.046875 182.542969 117.1875 183.761719 117.3125 184.964844 C 118.683594 183.324219 120.082031 181.703125 121.503906 180.097656 C 123.152344 178.257812 124.804688 176.4375 126.550781 174.683594 C 125.132812 176.703125 123.632812 178.667969 122.132812 180.609375 C 120.8125 182.347656 119.46875 184.003906 118.101562 185.667969 C 119.3125 185.566406 120.535156 185.46875 121.753906 185.410156 C 123.3125 185.3125 124.886719 185.246094 126.464844 185.238281 C 124.914062 185.519531 123.363281 185.71875 121.8125 185.921875 C 120.597656 186.0625 119.382812 186.199219 118.183594 186.3125 C 119.824219 187.683594 121.445312 189.082031 123.050781 190.507812 C 124.867188 192.136719 126.683594 193.789062 128.441406 195.53125 Z M 128.441406 195.53125 " fill-opacity="1" fill-rule="nonzero"/></g></g></g><g clip-path="url(#2dae91d1c1)"><g clip-path="url(#fee66bf957)"><g clip-path="url(#a9834e8354)"><path fill="#000000" d="M 114.636719 203.203125 C 114.210938 202.910156 113.820312 202.597656 113.417969 202.300781 C 113.078125 202.027344 112.722656 201.742188 112.382812 201.46875 C 112.40625 201.71875 112.429688 201.96875 112.4375 202.210938 C 112.449219 202.535156 112.460938 202.855469 112.476562 203.179688 C 112.417969 202.863281 112.371094 202.535156 112.335938 202.21875 C 112.3125 201.96875 112.269531 201.71875 112.246094 201.46875 C 111.957031 201.800781 111.683594 202.140625 111.382812 202.460938 C 111.042969 202.835938 110.707031 203.210938 110.34375 203.566406 C 110.636719 203.140625 110.949219 202.75 111.246094 202.347656 C 111.519531 202.007812 111.804688 201.652344 112.078125 201.3125 C 111.828125 201.335938 111.574219 201.359375 111.335938 201.367188 C 111.011719 201.378906 110.6875 201.394531 110.367188 201.40625 C 110.679688 201.347656 111.007812 201.300781 111.328125 201.265625 C 111.578125 201.242188 111.824219 201.199219 112.074219 201.175781 C 111.746094 200.886719 111.40625 200.613281 111.085938 200.3125 C 110.710938 199.976562 110.335938 199.636719 109.980469 199.273438 C 110.402344 199.566406 110.796875 199.878906 111.199219 200.175781 C 111.539062 200.449219 111.890625 200.734375 112.230469 201.007812 C 112.207031 200.757812 112.1875 200.507812 112.175781 200.265625 C 112.164062 199.941406 112.152344 199.621094 112.140625 199.296875 C 112.195312 199.613281 112.246094 199.9375 112.28125 200.257812 C 112.300781 200.507812 112.347656 200.753906 112.371094 201.007812 C 112.65625 200.675781 112.933594 200.335938 113.234375 200.015625 C 113.570312 199.640625 113.90625 199.265625 114.273438 198.910156 C 113.976562 199.335938 113.667969 199.726562 113.371094 200.128906 C 113.09375 200.46875 112.8125 200.820312 112.535156 201.160156 C 112.789062 201.140625 113.039062 201.117188 113.28125 201.105469 C 113.601562 201.09375 113.925781 201.082031 114.246094 201.070312 C 113.933594 201.128906 113.605469 201.175781 113.289062 201.210938 C 113.035156 201.234375 112.789062 201.277344 112.539062 201.300781 C 112.871094 201.585938 113.210938 201.863281 113.53125 202.164062 C 113.894531 202.515625 114.269531 202.851562 114.636719 203.203125 Z M 114.636719 203.203125 " fill-opacity="1" fill-rule="nonzero"/></g></g></g><g clip-path="url(#c61e207bdb)"><g clip-path="url(#2b86e1bd64)"><g clip-path="url(#adcfc18e2c)"><path fill="#000000" d="M 118.769531 200.039062 C 118.570312 199.902344 118.390625 199.761719 118.203125 199.609375 C 118.039062 199.476562 117.890625 199.351562 117.726562 199.21875 C 117.738281 199.347656 117.746094 199.449219 117.753906 199.574219 C 117.769531 199.722656 117.761719 199.875 117.777344 200.023438 C 117.75 199.867188 117.734375 199.71875 117.71875 199.570312 C 117.699219 199.457031 117.6875 199.332031 117.679688 199.230469 C 117.546875 199.390625 117.410156 199.53125 117.277344 199.695312 C 117.113281 199.875 116.960938 200.042969 116.796875 200.222656 C 116.933594 200.027344 117.074219 199.847656 117.226562 199.660156 C 117.359375 199.496094 117.480469 199.347656 117.613281 199.183594 C 117.488281 199.195312 117.386719 199.203125 117.261719 199.210938 C 117.113281 199.226562 116.960938 199.21875 116.8125 199.234375 C 116.96875 199.207031 117.117188 199.191406 117.265625 199.175781 C 117.378906 199.15625 117.503906 199.144531 117.605469 199.136719 C 117.441406 199.003906 117.300781 198.867188 117.140625 198.734375 C 116.957031 198.570312 116.792969 198.417969 116.609375 198.253906 C 116.808594 198.390625 116.984375 198.53125 117.175781 198.683594 C 117.339844 198.816406 117.488281 198.9375 117.652344 199.070312 C 117.640625 198.945312 117.632812 198.84375 117.621094 198.71875 C 117.609375 198.570312 117.613281 198.417969 117.597656 198.269531 C 117.628906 198.425781 117.644531 198.574219 117.660156 198.722656 C 117.679688 198.835938 117.691406 198.960938 117.699219 199.0625 C 117.828125 198.898438 117.964844 198.757812 118.097656 198.597656 C 118.261719 198.414062 118.417969 198.25 118.582031 198.066406 C 118.445312 198.265625 118.304688 198.441406 118.152344 198.632812 C 118.019531 198.796875 117.894531 198.945312 117.761719 199.109375 C 117.890625 199.097656 117.992188 199.089844 118.117188 199.078125 C 118.265625 199.0625 118.417969 199.070312 118.566406 199.054688 C 118.410156 199.085938 118.261719 199.101562 118.113281 199.117188 C 118 199.136719 117.875 199.148438 117.773438 199.152344 C 117.933594 199.285156 118.074219 199.421875 118.238281 199.554688 C 118.429688 199.707031 118.609375 199.871094 118.769531 200.039062 Z M 118.769531 200.039062 " fill-opacity="1" fill-rule="nonzero"/></g></g></g><g fill="#000000" fill-opacity="1"><g transform="translate(138.430659, 191.144855)"><g><path d="M -20.59375 -3.90625 L -20.59375 -4.5 L 0 -4.5 L 0 -3.90625 Z M -20.59375 -3.90625 "/></g></g></g><g fill="#000000" fill-opacity="1"><g transform="translate(54.149372, 210.444326)"><g><path d="M 43.265625 -50.109375 L 44.59375 -50.109375 L 44.59375 0 L 44.09375 0 L 8.6875 -46.6875 L 8.6875 0 L 7.34375 0 L 7.34375 -50.109375 L 7.84375 -50.109375 L 43.265625 -3.34375 Z M 43.265625 -50.109375 "/></g></g></g></svg>